#!OML:ASF X:\für Bonn\!DataBase\2005_08_12_Daniel\c3d\Daniel.ASF
:FULLY-SPECIFIED
:DEGREES
66
root -3.72798 7.60181 -1.24493 350.249 -88.034 -380.877
lowerback 58.1746 -2.46796 1.99752
upperback 5.23583 -4.11425 -2.70845
thorax -16.0555 -2.49424 -1.68966
lowerneck 10.1748 1.57343 -1.22403
upperneck -8.04082 2.09097 1.56607
head -4.54847 0.983088 0.603579
rclavicle 5.96354e-015 -6.36111e-015
rhumerus 88.685 -14.0033 -202.604
rradius 9.61532
rwrist 173.021
rhand -24.9159 16.3645
rfingers 7.12502
rthumb 1.5928 -13.6093
lclavicle 5.96354e-015 -6.36111e-015
lhumerus 70.1505 -10.5755 61.4532
lradius 16.8521
lwrist -37.5001
lhand -16.9911 0.0942084
lfingers 7.12502
lthumb 9.24396 29.8716
rfemur 27.8282 -51.9091 -125.818
rtibia 147.563
rfoot -37.2992 78.8018
rtoes -0.515065
lfemur -23.5181 65.1312 69.6646
ltibia 145.197
lfoot 18.2761 -75.8969
ltoes 14.8054
67
root -3.71891 7.43225 -1.2462 351.134 -88.0568 -381.818
lowerback 58.44 -2.47253 2.01364
upperback 5.26994 -4.12083 -2.68241
thorax -16.0286 -2.50499 -1.66101
lowerneck 10.2325 1.57664 -1.25575
upperneck -8.16583 2.08831 1.53547
head -4.60602 0.9838 0.598752
rclavicle 1.51076e-014 1.11319e-014
rhumerus 88.4936 -13.6829 -202.802
rradius 9.78302
rwrist 173.62
rhand -25.1187 16.1946
rfingers 7.12502
rthumb 1.39688 -13.7806
lclavicle 1.51076e-014 1.11319e-014
lhumerus 70.2531 -10.1887 62.4206
lradius 16.6424
lwrist -38.4904
lhand -17.3199 0.0665053
lfingers 7.12502
lthumb 8.92663 29.8577
rfemur 28.5403 -51.0529 -129.407
rtibia 149.045
rfoot -42.7484 79.2781
rtoes -0.693106
lfemur -21.0064 66.5373 74.7795
ltibia 146.502
lfoot 20.8153 -76.8175
ltoes 14.6683
68
root -3.70962 7.26996 -1.24707 351.811 -88.0469 -382.521
lowerback 58.6654 -2.51341 2.07041
upperback 5.31698 -4.15018 -2.68764
thorax -15.9883 -2.52599 -1.67533
lowerneck 10.207 1.5696 -1.25524
upperneck -8.5957 2.0856 1.56348
head -4.26799 0.97521 0.546111
rclavicle -6.36111e-015 2.38542e-015
rhumerus 88.3121 -13.3598 -203.031
rradius 9.97436
rwrist 174.199
rhand -25.2992 15.9965
rfingers 7.12502
rthumb 1.2226 -13.9797
lclavicle -6.36111e-015 2.38542e-015
lhumerus 70.3732 -9.89211 63.0818
lradius 16.5048
lwrist -39.147
lhand -17.6696 0.0718583
lfingers 7.12502
lthumb 8.5892 29.8771
rfemur 28.854 -50.3422 -132.507
rtibia 150.453
rfoot -47.3701 79.7539
rtoes -0.809648
lfemur -18.7443 67.7932 79.5243
ltibia 147.746
lfoot 23.1188 -77.6475
ltoes 14.5306
69
root -3.70038 7.11744 -1.24759 352.771 -88.0561 -383.477
lowerback 58.8886 -2.54803 2.13396
upperback 5.34154 -4.16362 -2.68856
thorax -15.9736 -2.53936 -1.69553
lowerneck 10.2019 1.55198 -1.26568
upperneck -8.67156 2.05567 1.51171
head -4.28953 0.96356 0.53369
rclavicle 7.7526e-015 1.03368e-014
rhumerus 88.1989 -13.12 -203.246
rradius 10.0863
rwrist 174.709
rhand -25.4673 15.7815
rfingers 7.12502
rthumb 1.06024 -14.1956
lclavicle 7.7526e-015 1.03368e-014
lhumerus 70.4607 -9.60742 63.9073
lradius 16.3078
lwrist -39.834
lhand -18.016 0.0863729
lfingers 7.12502
lthumb 8.25488 29.9051
rfemur 28.8563 -49.81 -135.143
rtibia 151.779
rfoot -51.5715 80.1565
rtoes -0.975774
lfemur -16.5761 68.9189 84.0521
ltibia 148.902
lfoot 25.8554 -78.2873
ltoes 14.3209
70
root -3.69097 6.97779 -1.24782 353.741 -88.057 -384.419
lowerback 59.0966 -2.58115 2.17846
upperback 5.36485 -4.18132 -2.66578
thorax -15.9561 -2.5538 -1.67802
lowerneck 10.2068 1.55099 -1.31808
upperneck -8.76141 2.0426 1.46642
head -4.31778 0.961197 0.5288
rclavicle -9.54166e-015 1.90833e-014
rhumerus 87.9514 -12.8875 -203.057
rradius 10.2097
rwrist 174.822
rhand -25.5682 15.5681
rfingers 7.12502
rthumb 0.962765 -14.4094
lclavicle -9.54166e-015 1.90833e-014
lhumerus 70.5406 -9.40696 64.2778
lradius 16.1832
lwrist -39.9231
lhand -18.4127 0.166617
lfingers 7.12502
lthumb 7.87206 30.0001
rfemur 28.6441 -49.4497 -137.37
rtibia 152.996
rfoot -55.2251 80.5083
rtoes -1.10404
lfemur -14.5776 69.9137 88.2527
ltibia 149.972
lfoot 28.5093 -78.837
ltoes 14.1252
71
root -3.67874 6.906 -1.25404 354.72 -88.0615 -385.344
lowerback 59.2781 -2.63463 2.26761
upperback 5.38525 -4.20212 -2.6895
thorax -15.9466 -2.56955 -1.73233
lowerneck 10.1941 1.52878 -1.31854
upperneck -8.81668 2.01049 1.44131
head -4.33194 0.9467 0.523237
rclavicle -3.06128e-014 -1.51076e-014
rhumerus 87.7431 -12.6802 -202.855
rradius 10.3553
rwrist 174.753
rhand -25.6832 15.4251
rfingers 7.12502
rthumb 0.851716 -14.553
lclavicle -3.06128e-014 -1.51076e-014
lhumerus 70.6404 -9.31424 64.3974
lradius 16.0777
lwrist -39.7767
lhand -18.716 0.255912
lfingers 7.12502
lthumb 7.57928 30.1001
rfemur 29.3714 -48.8357 -139.603
rtibia 153.675
rfoot -60.0201 80.4003
rtoes -1.33631
lfemur -10.4526 70.7341 93.7258
ltibia 150.495
lfoot 29.931 -79.5508
ltoes 14.0381
72
root -3.66797 6.77921 -1.25446 355.696 -88.0577 -386.242
lowerback 59.3992 -2.69182 2.33401
upperback 5.42719 -4.23769 -2.69144
thorax -15.9051 -2.59123 -1.74495
lowerneck 10.1821 1.53049 -1.36919
upperneck -8.89974 2.00122 1.3962
head -4.35537 0.946288 0.518016
rclavicle -4.07509e-014 -1.74931e-014
rhumerus 87.5897 -12.4552 -203.062
rradius 10.4457
rwrist 174.987
rhand -25.7719 15.232
rfingers 7.12502
rthumb 0.766089 -14.7464
lclavicle -4.07509e-014 -1.74931e-014
lhumerus 70.7169 -9.1607 64.5499
lradius 15.9624
lwrist -39.6227
lhand -19.0464 0.327409
lfingers 7.12502
lthumb 7.26032 30.1829
rfemur 28.9923 -48.6573 -141.47
rtibia 154.776
rfoot -63.235 80.7437
rtoes -1.5371
lfemur -7.76065 71.5447 98.5128
ltibia 151.458
lfoot 33.5222 -80.0119
ltoes 13.8752
73
root -3.65654 6.65613 -1.25438 356.684 -88.0499 -387.137
lowerback 59.4855 -2.76232 2.4241
upperback 5.46183 -4.27342 -2.70587
thorax -15.8726 -2.61242 -1.78257
lowerneck 10.2382 1.52233 -1.41032
upperneck -8.9951 1.979 1.34725
head -4.39352 0.939189 0.510421
rclavicle 1.11319e-014 -1.11319e-014
rhumerus 87.4833 -12.2596 -203.533
rradius 10.582
rwrist 175.33
rhand -25.8588 15.0827
rfingers 7.12502
rthumb 0.682089 -14.896
lclavicle 1.11319e-014 -1.11319e-014
lhumerus 70.7742 -9.02001 64.77
lradius 15.8169
lwrist -39.6464
lhand -19.2167 0.36276
lfingers 7.12502
lthumb 7.09596 30.2238
rfemur 28.5409 -48.5614 -143.234
rtibia 155.835
rfoot -66.0082 81.2016
rtoes -1.64112
lfemur -4.77958 72.2507 103.582
ltibia 152.377
lfoot 38.4732 -80.3723
ltoes 13.8819
74
root -3.64515 6.53765 -1.2542 357.626 -88.0508 -387.97
lowerback 59.5328 -2.82744 2.51005
upperback 5.50663 -4.30577 -2.72207
thorax -15.8256 -2.63197 -1.82275
lowerneck 10.2319 1.5188 -1.48737
upperneck -9.04592 1.9627 1.3423
head -4.40859 0.934017 0.522365
rclavicle 2.78299e-015 -7.15625e-015
rhumerus 87.3729 -12.0867 -203.891
rradius 10.67
rwrist 175.436
rhand -25.8678 14.9456
rfingers 7.12502
rthumb 0.673391 -15.0331
lclavicle 2.78299e-015 -7.15625e-015
lhumerus 70.8029 -8.86905 65.0239
lradius 15.6975
lwrist -39.7991
lhand -19.2627 0.474165
lfingers 7.12502
lthumb 7.05159 30.3367
rfemur 27.9951 -48.5161 -144.9
rtibia 156.838
rfoot -68.9835 81.8336
rtoes -1.72988
lfemur -1.54158 72.8275 108.903
ltibia 153.27
lfoot 43.7142 -80.7592
ltoes 13.7348
75
root -3.63504 6.4249 -1.25358 358.978 -88.0423 -389.18
lowerback 59.4884 -2.90921 2.6303
upperback 5.57507 -4.33963 -2.7593
thorax -15.7483 -2.65267 -1.90296
lowerneck 10.2495 1.49839 -1.48717
upperneck -9.09969 1.92954 1.28922
head -4.42703 0.920677 0.507969
rclavicle -1.78906e-015 -5.56597e-015
rhumerus 87.2918 -11.9543 -204.216
rradius 10.7268
rwrist 175.303
rhand -25.888 14.8466
rfingers 7.12502
rthumb 0.653913 -15.1321
lclavicle -1.78906e-015 -5.56597e-015
lhumerus 70.8171 -8.70284 65.4339
lradius 15.548
lwrist -40.2802
lhand -19.1794 0.533247
lfingers 7.12502
lthumb 7.13202 30.3931
rfemur 27.4334 -48.5153 -146.483
rtibia 157.8
rfoot -72.4876 82.425
rtoes -1.91874
lfemur 1.82172 73.2832 114.354
ltibia 154.125
lfoot 49.5627 -81.0798
ltoes 13.6264
76
root -3.62594 6.31968 -1.25303 359.329 -88.0321 -389.404
lowerback 59.4344 -2.96722 2.69142
upperback 5.65397 -4.38147 -2.77994
thorax -15.6553 -2.67523 -1.9343
lowerneck 10.2653 1.49393 -1.49471
upperneck -9.17252 1.91635 1.23301
head -4.45137 0.917582 0.492456
rclavicle 5.1684e-015 7.15625e-015
rhumerus 87.1509 -11.8636 -204.264
rradius 10.735
rwrist 174.789
rhand -25.8019 14.8285
rfingers 7.12502
rthumb 0.737111 -15.15
lclavicle 5.1684e-015 7.15625e-015
lhumerus 70.7865 -8.46755 66.0287
lradius 15.3976
lwrist -41.0552
lhand -19.0128 0.640242
lfingers 7.12502
lthumb 7.29283 30.4946
rfemur 26.7773 -48.5129 -147.968
rtibia 158.7
rfoot -77.3367 82.9233
rtoes -2.11474
lfemur 4.95954 73.6178 119.431
ltibia 154.915
lfoot 55.5158 -81.3417
ltoes 13.5379
77
root -3.61768 6.22432 -1.25179 360.482 -88.0264 -390.394
lowerback 59.3122 -3.0269 2.7946
upperback 5.74683 -4.39974 -2.80946
thorax -15.5426 -2.68894 -2.00765
lowerneck 10.239 1.46788 -1.42601
upperneck -9.20904 1.88149 1.1396
head -4.45619 0.903612 0.455021
rclavicle 1.19271e-014 -4.77083e-015
rhumerus 86.9211 -11.817 -203.675
rradius 10.75
rwrist 173.605
rhand -25.6443 14.8087
rfingers 7.12502
rthumb 0.889331 -15.1691
lclavicle 1.19271e-014 -4.77083e-015
lhumerus 70.7484 -8.28365 66.6127
lradius 15.2604
lwrist -41.9424
lhand -18.8077 0.780902
lfingers 7.12502
lthumb 7.49079 30.6283
rfemur 26.1557 -48.5148 -149.35
rtibia 159.524
rfoot -83.1543 83.4144
rtoes -2.34601
lfemur 7.8083 73.9224 124.139
ltibia 155.637
lfoot 61.6823 -81.4114
ltoes 13.3813
